<svg xmlns="http://www.w3.org/2000/svg" width="591.036" height="591.036" viewBox="0 0 591.036 591.036">
  <g id="Group_14" data-name="Group 14" transform="translate(-1931.964 -1914.043)">
    <path id="Path_23" data-name="Path 23" d="M100,0c50,0,100,126.927,100,283.5S155.228,567,100,567,0,440.073,0,283.5,50,0,100,0Z" transform="translate(2127.482 1926.061)" fill="#a2b1ff"/>
    <text id="v" transform="translate(2130.482 2308.957)" fill="#fff" font-size="150" font-family="SegoeUI, Segoe UI"><tspan x="0" y="0">v</tspan></text>
    <ellipse id="Ellipse_6" data-name="Ellipse 6" cx="100" cy="283.5" rx="100" ry="283.5" transform="translate(2455.834 2405.079) rotate(150)" fill="#3e5fff"/>
    <ellipse id="Ellipse_11" data-name="Ellipse 11" cx="100" cy="283.5" rx="100" ry="283.5" transform="translate(2523 2264.708) rotate(120)" fill="#7289ff"/>
    <ellipse id="Ellipse_12" data-name="Ellipse 12" cx="100" cy="283.5" rx="100" ry="283.5" transform="translate(2510.982 2109.561) rotate(90)" fill="#3e5fff"/>
    <ellipse id="Ellipse_13" data-name="Ellipse 13" cx="100" cy="283.5" rx="100" ry="283.5" transform="translate(2423 1981.208) rotate(60)" fill="#a2b1ff"/>
    <ellipse id="Ellipse_14" data-name="Ellipse 14" cx="100" cy="283.5" rx="100" ry="283.5" transform="translate(2282.629 1914.043) rotate(30)" fill="#7289ff"/>
    <g id="Ellipse_10" data-name="Ellipse 10" transform="translate(2002.482 1984.561)" fill="none" stroke="#fff" stroke-width="5">
      <circle cx="225" cy="225" r="225" stroke="none"/>
      <circle cx="225" cy="225" r="222.5" fill="none"/>
    </g>
    <text id="HMG" transform="translate(2057.482 2266.561)" fill="#fff" font-size="150" font-family="Roboto-Regular, Roboto"><tspan x="0" y="0">HMG</tspan></text>
  </g>
</svg>
